# xmcd
#
# Track frame offsets: 
#        150
#        29225
#        40745
#        53580
#        62772
#        75157
#        88377
#        101255
#        118400
#        130997
#        143502
#        153112
#        168000
#        183597
#
# Disc length: 2597 seconds
#
# Revision: 0
# Processed by: cddbd v1.5.2PL0 Copyright (c) Steve Scherf et al.
# Submitted via: ExactAudioCopy v0.99pb4
#
DISCID=b10a230e
DTITLE=Bobby Womack - The Midnight Mover
DYEAR=1900
DGENRE=Soul
TTITLE0=I Can Understand It
TTITLE1=Looking For A Love
TTITLE2=Its All Over Now
TTITLE3=I'm A Midnight Mover
TTITLE4=I'm In Love
TTITLE5=Arkansas State Prison
TTITLE6=That's Heaven To Me
TTITLE7=Harry Hippie
TTITLE8=Tried And Convicted
TTITLE9=Don't Look Back
TTITLE10=Fly Me To The Moon
TTITLE11=California Dreamin'
TTITLE12=Woman's Gotta Have It
TTITLE13=I Take It On Home
EXTD=
EXTT0=
EXTT1=
EXTT2=
EXTT3=
EXTT4=
EXTT5=
EXTT6=
EXTT7=
EXTT8=
EXTT9=
EXTT10=
EXTT11=
EXTT12=
EXTT13=
PLAYORDER=
